<?xml version="1.0" encoding="UTF-8"?>
<svg version="1.1" xmlns="http://www.w3.org/2000/svg" width="603" height="603">
<path d="M0 0 C1.10682129 0.19867676 2.21364258 0.39735352 3.35400391 0.60205078 C51.3173479 9.51134036 96.56775735 28.75347671 135 59 C135.83273437 59.64066406 136.66546875 60.28132813 137.5234375 60.94140625 C143.35308937 65.49294832 148.79359958 70.39184487 154.203125 75.42578125 C156.38610912 77.43498032 158.59514556 79.35499278 160.875 81.25 C171.37495774 90.39653283 180.3434848 101.27735475 188.72949219 112.34423828 C189.94258835 113.92517952 191.19315901 115.47715372 192.4453125 117.02734375 C232.95167045 167.62772981 252.55439471 233.87308737 252.3125 298.0625 C252.31034485 299.09525055 252.3081897 300.1280011 252.30596924 301.19204712 C252.25321286 316.97428586 251.81460068 332.4299224 249 348 C248.80132324 349.10682129 248.60264648 350.21364258 248.39794922 351.35400391 C239.48865964 399.3173479 220.24652329 444.56775735 190 483 C189.35933594 483.83273437 188.71867188 484.66546875 188.05859375 485.5234375 C183.50705168 491.35308937 178.60815513 496.79359958 173.57421875 502.203125 C171.56501968 504.38610912 169.64500722 506.59514556 167.75 508.875 C158.60346717 519.37495774 147.72264525 528.3434848 136.65576172 536.72949219 C135.07482048 537.94258835 133.52284628 539.19315901 131.97265625 540.4453125 C94.43349349 570.49596789 47.07828881 588.9454917 0 597 C-1.3921875 597.24556641 -1.3921875 597.24556641 -2.8125 597.49609375 C-33.60367514 602.67072179 -68.27872759 602.55347997 -99 597 C-100.10682129 596.80132324 -101.21364258 596.60264648 -102.35400391 596.39794922 C-150.3173479 587.48865964 -195.56775735 568.24652329 -234 538 C-234.83273438 537.35933594 -235.66546875 536.71867188 -236.5234375 536.05859375 C-242.35308937 531.50705168 -247.79359958 526.60815513 -253.203125 521.57421875 C-255.38610912 519.56501968 -257.59514556 517.64500722 -259.875 515.75 C-269.92477752 507.0220095 -278.89270172 496.51435911 -287 486 C-287.76497803 485.0112085 -287.76497803 485.0112085 -288.54541016 484.00244141 C-297.63262165 472.18408645 -305.70444319 459.99891582 -313 447 C-313.49741699 446.11892578 -313.99483398 445.23785156 -314.50732422 444.33007812 C-331.26277853 414.33926816 -342.12904977 381.79793037 -348 348 C-348.16516113 347.06752441 -348.33032227 346.13504883 -348.50048828 345.17431641 C-353.67168703 314.38776912 -353.55251281 279.71592218 -348 249 C-347.80132324 247.89317871 -347.60264648 246.78635742 -347.39794922 245.64599609 C-332.30611682 164.39880551 -285.93244613 93.77637888 -218 47 C-211.49525929 42.72025751 -204.78818568 38.80982499 -198 35 C-197.11892578 34.50258301 -196.23785156 34.00516602 -195.33007812 33.49267578 C-165.33926816 16.73722147 -132.79793037 5.87095023 -99 0 C-98.06752441 -0.16516113 -97.13504883 -0.33032227 -96.17431641 -0.50048828 C-65.38776912 -5.67168703 -30.71592218 -5.55251281 0 0 Z " fill="#208A3A" transform="translate(351,3)"/>
<path d="M0 0 C1.10682129 0.19867676 2.21364258 0.39735352 3.35400391 0.60205078 C51.3173479 9.51134036 96.56775735 28.75347671 135 59 C135.83273437 59.64066406 136.66546875 60.28132813 137.5234375 60.94140625 C143.35308937 65.49294832 148.79359958 70.39184487 154.203125 75.42578125 C156.38610912 77.43498032 158.59514556 79.35499278 160.875 81.25 C171.37495774 90.39653283 180.3434848 101.27735475 188.72949219 112.34423828 C189.94258835 113.92517952 191.19315901 115.47715372 192.4453125 117.02734375 C232.95167045 167.62772981 252.55439471 233.87308737 252.3125 298.0625 C252.31034485 299.09525055 252.3081897 300.1280011 252.30596924 301.19204712 C252.25321286 316.97428586 251.81460068 332.4299224 249 348 C248.80132324 349.10682129 248.60264648 350.21364258 248.39794922 351.35400391 C239.48865964 399.3173479 220.24652329 444.56775735 190 483 C189.35933594 483.83273437 188.71867188 484.66546875 188.05859375 485.5234375 C183.50705168 491.35308937 178.60815513 496.79359958 173.57421875 502.203125 C171.56501968 504.38610912 169.64500722 506.59514556 167.75 508.875 C158.60346717 519.37495774 147.72264525 528.3434848 136.65576172 536.72949219 C135.07482048 537.94258835 133.52284628 539.19315901 131.97265625 540.4453125 C94.43349349 570.49596789 47.07828881 588.9454917 0 597 C-1.3921875 597.24556641 -1.3921875 597.24556641 -2.8125 597.49609375 C-33.60367514 602.67072179 -68.27872759 602.55347997 -99 597 C-100.10682129 596.80132324 -101.21364258 596.60264648 -102.35400391 596.39794922 C-150.3173479 587.48865964 -195.56775735 568.24652329 -234 538 C-234.83273438 537.35933594 -235.66546875 536.71867188 -236.5234375 536.05859375 C-242.35308937 531.50705168 -247.79359958 526.60815513 -253.203125 521.57421875 C-255.38610912 519.56501968 -257.59514556 517.64500722 -259.875 515.75 C-269.92477752 507.0220095 -278.89270172 496.51435911 -287 486 C-287.76497803 485.0112085 -287.76497803 485.0112085 -288.54541016 484.00244141 C-297.63262165 472.18408645 -305.70444319 459.99891582 -313 447 C-313.49741699 446.11892578 -313.99483398 445.23785156 -314.50732422 444.33007812 C-331.26277853 414.33926816 -342.12904977 381.79793037 -348 348 C-348.16516113 347.06752441 -348.33032227 346.13504883 -348.50048828 345.17431641 C-353.67168703 314.38776912 -353.55251281 279.71592218 -348 249 C-347.80132324 247.89317871 -347.60264648 246.78635742 -347.39794922 245.64599609 C-332.30611682 164.39880551 -285.93244613 93.77637888 -218 47 C-211.49525929 42.72025751 -204.78818568 38.80982499 -198 35 C-197.11892578 34.50258301 -196.23785156 34.00516602 -195.33007812 33.49267578 C-165.33926816 16.73722147 -132.79793037 5.87095023 -99 0 C-98.06752441 -0.16516113 -97.13504883 -0.33032227 -96.17431641 -0.50048828 C-65.38776912 -5.67168703 -30.71592218 -5.55251281 0 0 Z M-92 25 C-92.77263184 25.11214844 -93.54526367 25.22429688 -94.34130859 25.33984375 C-141.41566262 32.20242674 -186.20501169 53.09903672 -223 83 C-223.52416504 83.42120117 -224.04833008 83.84240234 -224.58837891 84.27636719 C-239.72641025 96.52378802 -254.24004462 110.455782 -266 126 C-267.15048828 127.42505859 -267.15048828 127.42505859 -268.32421875 128.87890625 C-311.92066904 183.56267985 -331.88497273 255.8257426 -325.23144531 325.19140625 C-324.62683736 330.48545285 -323.86254011 335.7421588 -323 341 C-322.81727539 342.12083984 -322.63455078 343.24167969 -322.44628906 344.39648438 C-314.46870253 391.26644266 -295.00722921 435.07424489 -265 472 C-264.36819824 472.78624756 -264.36819824 472.78624756 -263.72363281 473.58837891 C-251.47621198 488.72641025 -237.544218 503.24004462 -222 515 C-221.04996094 515.76699219 -220.09992188 516.53398438 -219.12109375 517.32421875 C-165.05239626 560.43030173 -92.86635741 580.97516785 -24.1875 574.1875 C-21.11821361 573.83566342 -18.05965949 573.42669629 -15 573 C-14.25137695 572.90348145 -13.50275391 572.80696289 -12.73144531 572.70751953 C37.47796087 566.17665059 84.73763637 545.90604338 124 514 C124.52416504 513.57879883 125.04833008 513.15759766 125.58837891 512.72363281 C140.70785515 500.49122398 155.30943078 486.57255213 167 471 C167.91019224 469.84015115 168.82175582 468.6813777 169.734375 467.5234375 C178.02254442 456.88296262 185.16266992 445.61615982 192 434 C192.39171387 433.33677734 192.78342773 432.67355469 193.18701172 431.99023438 C216.42501793 392.09243117 227.25564708 344.25438775 227.1875 298.375 C227.18689575 297.62099915 227.1862915 296.86699829 227.18566895 296.09014893 C227.16140481 284.92716566 226.7588471 274.03341991 225 263 C224.72885164 261.13416034 224.45804229 259.26827139 224.1875 257.40234375 C219.8789853 228.7648968 211.87056576 200.41577948 197.99755859 174.86132812 C196.93949408 172.88710301 195.93008727 170.89269432 194.92578125 168.890625 C186.9647655 153.1745753 177.10308469 138.66303378 166 125 C165.57879883 124.47583496 165.15759766 123.95166992 164.72363281 123.41162109 C152.47621198 108.27358975 138.544218 93.75995538 123 82 C122.04996094 81.23300781 121.09992188 80.46601562 120.12109375 79.67578125 C91.06729165 56.51273752 57.43413166 41.45576296 22 31 C21.28005859 30.78118164 20.56011719 30.56236328 19.81835938 30.33691406 C-2.45686536 23.6453192 -27.02284182 21.77675585 -50.1875 21.75 C-50.8805423 21.74866058 -51.57358459 21.74732117 -52.28762817 21.74594116 C-65.69019705 21.75150327 -78.75069252 22.94318642 -92 25 Z " fill="#FEFEFE" transform="translate(351,3)"/>
<path d="M0 0 C1.26664553 -0.00709439 2.53329105 -0.01418877 3.83831978 -0.02149814 C7.35209538 -0.04044084 10.86517576 -0.02817609 14.37893391 -0.01077521 C18.1690623 0.00258533 21.95908806 -0.01283353 25.74920654 -0.02459717 C33.17320087 -0.04298804 40.59693221 -0.0344519 48.02091837 -0.01650894 C54.05386113 -0.00249022 60.08673245 0.00141143 66.11968994 -0.00195122 C67.40705132 -0.00266738 67.40705132 -0.00266738 68.72042 -0.00339801 C70.46385369 -0.00442433 72.20728737 -0.00547969 73.95072103 -0.00656378 C89.37133413 -0.01513376 104.79182016 0.00155382 120.21240234 0.03126526 C135.17990456 0.06010339 150.14722372 0.0671866 165.11474609 0.05177307 C181.40861473 0.03501668 197.70239642 0.03097096 213.99626732 0.04848343 C215.73333103 0.05032784 217.47039476 0.05216257 219.2074585 0.0539875 C220.48950202 0.05535564 220.48950202 0.05535564 221.79744542 0.05675141 C227.82398323 0.06236031 233.85047864 0.05904634 239.87701416 0.05244255 C247.22017119 0.04471558 254.56314793 0.0514389 261.9062686 0.07661759 C265.65375591 0.08912755 269.40096235 0.09524127 273.14846039 0.08407593 C277.20828445 0.07220832 281.26736828 0.09126398 285.32714844 0.11352539 C287.10947719 0.10116424 287.10947719 0.10116424 288.92781258 0.08855337 C296.85713226 0.16916318 296.85713226 0.16916318 300.900177 2.47045994 C302.66357422 4.62818909 302.66357422 4.62818909 303.21435547 7.66651917 C302.46175565 13.07983357 300.73633062 17.89994036 298.85107422 23.01490784 C298.45076492 24.1280838 298.05045563 25.24125977 297.63801575 26.38816833 C296.32376303 30.03459099 294.99380908 33.67506974 293.66357422 37.31568909 C292.74170244 39.85973815 291.8231664 42.40498778 290.90454102 44.95021057 C288.5977655 51.33500839 286.27665843 57.71450716 283.95159912 64.09266663 C282.08567956 69.21446241 280.22823291 74.33931901 278.37060547 79.46412659 C276.43958862 84.78846649 274.50603879 90.11184931 272.56323242 95.43190002 C269.01384926 105.15145249 265.49115568 114.87991541 261.99951172 124.62037659 C260.82994756 127.87696519 259.660043 131.13343134 258.49008179 134.38987732 C257.73755416 136.48809525 256.98688818 138.5869819 256.2381897 140.68656921 C255.2010899 143.59459949 254.15758446 146.50025884 253.11279297 149.40553284 C252.80727509 150.26794586 252.5017572 151.13035889 252.1869812 152.01890564 C248.41491829 162.46062637 248.41491829 162.46062637 243.66357422 165.62818909 C241.79516655 165.88118875 241.79516655 165.88118875 239.65113926 165.88545799 C238.42320789 165.89513133 238.42320789 165.89513133 237.17046982 165.90500009 C236.27145492 165.90190289 235.37244002 165.89880568 234.44618225 165.89561462 C233.49088999 165.90014574 232.53559772 165.90467685 231.55135721 165.90934527 C228.33619154 165.92205026 225.12119393 165.92036498 221.90600586 165.91871643 C219.60666179 165.92469783 217.30731974 165.93150246 215.00798035 165.93907166 C208.7518799 165.95677728 202.49583412 165.96142892 196.23971105 165.96270323 C191.02322764 165.96459929 185.80675705 165.97195334 180.59027857 165.97904742 C168.99055437 165.99441428 157.3908569 166.00038378 145.79112334 165.99903671 C145.09491348 165.9989568 144.39870361 165.99887689 143.68139648 165.99879456 C142.98433837 165.99871279 142.28728026 165.99863103 141.56909918 165.99854679 C130.26844667 165.99773363 118.96792737 166.01687825 107.6673134 166.04507129 C96.06874022 166.0737798 84.47023815 166.08724621 72.8716287 166.08588374 C66.35790674 166.08537282 59.8443355 166.09112771 53.33064461 166.11223984 C47.20668876 166.13154615 41.08302861 166.13179885 34.95906258 166.11720657 C32.70799327 166.11510798 30.45690582 166.11988136 28.20586777 166.13192749 C25.13954302 166.14727725 22.07425104 166.13813974 19.00794983 166.12266541 C18.11116565 166.13295253 17.21438148 166.14323966 16.29042202 166.15383852 C10.30669339 166.08682199 10.30669339 166.08682199 7.14986324 163.83556557 C3.05779158 157.75818587 3.0991918 148.85119247 2.22607422 141.76490784 C1.52636012 136.36167342 0.57365422 130.99910691 -0.33642578 125.62818909 C-3.21490084 108.40723228 -5.86256024 91.17645859 -8.21347046 73.87593079 C-9.49276797 64.47563123 -10.85525088 55.10455826 -12.46142578 45.75318909 C-13.78614663 38.0383651 -15.00907023 30.31928636 -16.08642578 22.56568909 C-16.2142041 21.66672913 -16.34198242 20.76776917 -16.47363281 19.84156799 C-18.21887613 6.96702344 -18.21887613 6.96702344 -15.58303833 2.96798801 C-11.33792105 -0.9853821 -5.43872501 -0.05417458 0 0 Z " fill="#26A444" transform="translate(177.33642578125,192.37181091308594)"/>
<path d="M0 0 C1.28932786 -0.0060911 2.57865572 -0.01218221 3.90705413 -0.01845789 C7.4748955 -0.03482917 11.04251549 -0.03254528 14.61038125 -0.02708292 C18.46259199 -0.02440922 22.31474419 -0.03895094 26.16693115 -0.05117798 C33.70989943 -0.07222022 41.25279083 -0.07677351 48.79578499 -0.07499009 C54.92826523 -0.07368179 61.06072152 -0.07749008 67.19319725 -0.08491516 C68.96055068 -0.08701439 70.72790412 -0.08911199 72.49525756 -0.09120798 C73.81481221 -0.09277327 73.81481221 -0.09277327 75.16102453 -0.09437019 C91.79444527 -0.11326789 108.4278219 -0.11222388 125.06124892 -0.10540086 C140.26985429 -0.09982645 155.47829115 -0.12064728 170.68685714 -0.15376133 C186.310693 -0.18751495 201.93444818 -0.20266453 217.55832118 -0.1980443 C226.32683384 -0.19580121 235.09519078 -0.20101922 243.86367226 -0.22593689 C251.32924529 -0.2469717 258.79457723 -0.25052053 266.26016025 -0.2316373 C270.06708515 -0.22249256 273.8735608 -0.22129705 277.68045044 -0.24199295 C281.81295009 -0.26420994 285.94439543 -0.24745395 290.0769043 -0.22705078 C291.87035891 -0.24582755 291.87035891 -0.24582755 293.70004493 -0.26498365 C302.68250495 -0.16999435 309.21591057 1.99206865 316.10392761 7.83190918 C321.894365 14.81449544 324.22433721 20.26651092 323.52714539 29.32421875 C322.95489439 33.29671348 321.57733329 37.01103759 320.26017761 40.78894043 C319.94886902 41.7010881 319.63756042 42.61323578 319.31681824 43.55302429 C315.83131843 53.69246031 312.15640105 63.76471042 308.46632385 73.83108521 C306.28308101 79.78733697 304.10939629 85.7470737 301.93595886 91.70690918 C301.70812021 92.33140772 301.48028156 92.95590626 301.24553871 93.59932899 C297.48275343 103.91543151 293.75872939 114.24513257 290.05314636 124.58190918 C289.79632206 125.29808599 289.53949776 126.01426281 289.2748909 126.75214195 C286.99568704 133.10812614 284.71728518 139.46439541 282.44548035 145.82302856 C279.39673192 154.35539867 276.32821065 162.88022682 273.22892761 171.39440918 C272.87961182 172.35973572 272.53029602 173.32506226 272.1703949 174.31964111 C271.25190258 176.84346216 270.31671896 179.3602278 269.37345886 181.87487793 C269.12238876 182.56962723 268.87131866 183.26437653 268.61264038 183.98017883 C266.18362362 190.33080712 262.6944886 195.08336888 256.54142761 198.20690918 C255.77443542 198.60522949 255.00744324 199.0035498 254.21720886 199.41394043 C253.56107605 199.73749512 252.90494324 200.0610498 252.22892761 200.39440918 C251.56892761 200.72440918 250.90892761 201.05440918 250.22892761 201.39440918 C247.11431966 201.50157934 244.02162981 201.54663311 240.90641785 201.54830933 C239.92762854 201.55269158 238.94883923 201.55707383 237.94038963 201.56158888 C234.63943166 201.57501207 231.3385004 201.58116371 228.03752136 201.58728027 C225.67909625 201.59517864 223.32067236 201.60344742 220.96224976 201.61206055 C213.86768945 201.63604945 206.77312379 201.65121618 199.67853642 201.66412061 C197.67411059 201.66783245 195.66968545 201.67180572 193.66526031 201.67587328 C181.21527801 201.70111627 168.76529461 201.72316727 156.31529236 201.73560143 C153.43054704 201.7385311 150.54580175 201.74149275 147.66105652 201.74450684 C146.94407247 201.74525289 146.22708841 201.74599894 145.48837757 201.7467676 C133.884537 201.75940978 122.28085005 201.79261605 110.67708123 201.83430867 C98.75985783 201.87677576 86.84271294 201.9003022 74.92541409 201.90552199 C68.23593231 201.90893138 61.54672702 201.92119958 54.85731506 201.95362473 C48.56014491 201.98370948 42.26339223 201.9900153 35.96616554 201.97824097 C33.65794125 201.97802025 31.34969757 201.98632339 29.04154015 202.00389481 C25.88296242 202.02662616 22.72589328 202.01827183 19.56730652 202.00241089 C18.66008063 202.01629298 17.75285475 202.03017506 16.81813717 202.04447782 C8.22192558 201.93858031 1.35920247 198.79158429 -4.70857239 192.70690918 C-11.91331558 184.72327483 -12.09656829 171.22102575 -13.64607239 161.01940918 C-13.90447703 159.35285826 -14.16318974 157.68635508 -14.42219543 156.01989746 C-16.49753781 142.57387488 -18.39706406 129.10324815 -20.21003723 115.61950684 C-20.30837357 114.89269714 -20.4067099 114.16588745 -20.50802612 113.41705322 C-20.77202456 111.46170566 -21.033015 109.50595264 -21.29377747 107.5501709 C-21.6729189 104.57353622 -21.6729189 104.57353622 -22.33235168 102.46130371 C-23.02975917 99.17568781 -22.77107239 95.75322579 -22.77107239 92.39440918 C-49.17107239 92.39440918 -75.57107239 92.39440918 -102.77107239 92.39440918 C-102.77107239 85.79440918 -102.77107239 79.19440918 -102.77107239 72.39440918 C-77.69107239 72.39440918 -52.61107239 72.39440918 -26.77107239 72.39440918 C-27.10107239 69.09440918 -27.43107239 65.79440918 -27.77107239 62.39440918 C-44.27107239 62.39440918 -60.77107239 62.39440918 -77.77107239 62.39440918 C-77.77107239 55.79440918 -77.77107239 49.19440918 -77.77107239 42.39440918 C-62.26107239 42.39440918 -46.75107239 42.39440918 -30.77107239 42.39440918 C-31.76107239 36.45440918 -31.76107239 36.45440918 -32.77107239 30.39440918 C-33.45417943 22.39229806 -32.39866971 17.05636088 -27.77107239 10.39440918 C-19.59922335 1.29938055 -11.78361449 -0.05221719 0 0 Z M-13.02030945 20.7624979 C-15.16165594 23.98157106 -15.22208473 25.35168166 -14.72419739 29.15222168 C-14.58691223 30.29980957 -14.44962708 31.44739746 -14.30818176 32.62976074 C-14.13093567 33.87209473 -13.95368958 35.11442871 -13.77107239 36.39440918 C-13.60929504 37.69088379 -13.4475177 38.9873584 -13.28083801 40.32312012 C-12.73804734 44.64490854 -12.13266401 48.9569012 -11.52107239 53.26940918 C-11.41191498 54.0489798 -11.30275757 54.82855042 -11.19029236 55.63174438 C-9.48284502 67.82141216 -7.59008218 79.97164415 -5.58332825 92.11560059 C-3.91394953 102.28777847 -2.46445107 112.47568528 -1.11457825 122.69494629 C-0.4483479 127.69765151 0.24956931 132.67282526 1.18595886 137.63269043 C2.06936315 142.32852434 2.77933461 147.03542675 3.44767761 151.76550293 C3.55231827 152.50186981 3.65695892 153.23823669 3.76477051 153.99691772 C4.1981283 157.05419312 4.62952961 160.11168721 5.05168152 163.17053223 C5.36491013 165.43228998 5.68685666 167.69266891 6.01017761 169.95300293 C6.10294983 170.64155869 6.19572205 171.33011444 6.29130554 172.03953552 C6.79043871 175.48231249 7.27473143 178.47556476 9.22892761 181.39440918 C12.26608724 183.41918227 12.83565642 183.64489692 16.23856926 183.65167809 C17.46557558 183.66135142 17.46557558 183.66135142 18.71736991 183.67122018 C20.06486908 183.66657438 20.06486908 183.66657438 21.43959045 183.66183472 C22.39417715 183.66636583 23.34876385 183.67089694 24.33227742 183.67556536 C27.54510915 183.68827042 30.75777269 183.68658506 33.97062683 183.68493652 C36.26834838 183.69091795 38.56606792 183.6977226 40.86378479 183.70529175 C47.11582029 183.72299799 53.36780108 183.72764907 59.61985922 183.72892332 C64.83376304 183.73081952 70.04765403 183.73817382 75.26155293 183.74526751 C86.85678874 183.76063491 98.45199781 183.76660385 110.04724298 183.76525681 C111.09116369 183.76513694 111.09116369 183.76513694 112.15617371 183.76501465 C112.85296951 183.76493289 113.54976531 183.76485113 114.26767613 183.76476689 C125.56118661 183.76395392 136.85456373 183.78309325 148.14803563 183.81129138 C159.74096359 183.84000906 171.33382037 183.85346588 182.92678463 183.85210383 C189.43662614 183.85159311 195.94631678 183.85733684 202.45612717 183.87845993 C208.5776238 183.89777985 214.6988247 183.89800949 220.82033157 183.88342667 C223.06936829 183.88132972 225.31842321 183.88609185 227.56742859 183.89814758 C230.63340256 183.91352042 233.69834664 183.90434426 236.76429749 183.8888855 C237.65816882 183.89917262 238.55204015 183.90945975 239.4729985 183.92005861 C243.6002401 183.87394615 245.68986362 183.73612671 249.253335 181.47721004 C251.12795177 179.50086462 252.08065068 178.22787821 252.94792175 175.68225098 C253.33224617 174.59422684 253.33224617 174.59422684 253.72433472 173.48422241 C253.98495193 172.69532623 254.24556915 171.90643005 254.51408386 171.09362793 C254.80737076 170.25107452 255.10065765 169.40852112 255.40283203 168.54043579 C256.04182547 166.69937127 256.673562 164.85577588 257.29893494 163.01004028 C258.66692076 158.97409933 260.07051468 154.95081505 261.47190857 150.92637634 C262.22232034 148.77054299 262.97093759 146.61408427 263.71788025 144.45704651 C267.64022873 133.14606516 271.73426276 121.89943331 275.84425354 110.6555481 C277.10548089 107.20265674 278.36282633 103.74837732 279.61882019 100.2935791 C283.46234693 89.72219496 287.31440731 79.15413999 291.19416809 68.59599304 C292.89240953 63.96824848 294.58165611 59.33725339 296.26902771 54.70553589 C297.06877087 52.51688297 297.87253604 50.32969508 298.68052673 48.14407349 C299.79549094 45.12699985 300.8965352 42.10518379 301.99455261 39.08190918 C302.32474396 38.19907761 302.6549353 37.31624603 302.99513245 36.40666199 C304.7045679 31.65105584 306.06516624 27.5038748 305.22892761 22.39440918 C303.03510412 19.69829104 301.19142606 18.53621249 297.73603058 18.02713478 C294.44870255 17.87235762 291.18347648 17.85692128 287.89250183 17.87974548 C285.99253354 17.86932719 285.99253354 17.86932719 284.05418205 17.85869843 C280.54050958 17.84005177 277.02725801 17.84638273 273.51356792 17.85685146 C269.72343956 17.86383777 265.93339815 17.84784994 262.14329529 17.83485413 C254.71934735 17.81319975 247.29555261 17.81334459 239.87158346 17.82147967 C233.83864454 17.8277764 227.80575033 17.82664565 221.77281189 17.8202076 C220.91457097 17.81930594 220.05633005 17.81840429 219.17208183 17.81747531 C217.42864814 17.81562413 215.68521447 17.81376157 213.94178081 17.81188775 C197.58891563 17.79530445 181.2361367 17.80403318 164.8832767 17.82087333 C149.91688814 17.83557276 134.95070028 17.82093944 119.98433757 17.79210316 C104.62161461 17.7627233 89.25898434 17.75173263 73.89623451 17.76128536 C72.1591708 17.76230793 70.42210708 17.76330254 68.68504333 17.76426888 C67.40299981 17.76498346 67.40299981 17.76498346 66.09505641 17.76571248 C60.06849783 17.76787837 54.04202683 17.75806333 48.01548767 17.74349785 C40.67231414 17.72599797 33.3293966 17.72605805 25.98623323 17.7488495 C22.23867911 17.76001292 18.49157638 17.76310739 14.74404144 17.7445488 C10.68410508 17.72470157 6.6252742 17.74348078 2.56535339 17.76622009 C1.37713423 17.75438436 0.18891506 17.74254864 -1.03531075 17.73035425 C-7.57587008 17.62834391 -7.57587008 17.62834391 -13.02030945 20.7624979 Z " fill="#FDFEFD" transform="translate(174.7710723876953,174.6055908203125)"/>
<path d="M0 0 C35.31 0 70.62 0 107 0 C107 37.62 107 75.24 107 114 C71.69 114 36.38 114 0 114 C0 76.38 0 38.76 0 0 Z " fill="#19135C" transform="translate(296,231)"/>
<path d="M0 0 C27.72 0 55.44 0 84 0 C84 29.37 84 58.74 84 89 C56.28 89 28.56 89 0 89 C0 59.63 0 30.26 0 0 Z " fill="#660B0B" transform="translate(201,268)"/>
<path d="M0 0 C10.47273775 6.58740503 16.5735503 14.85346341 20.50390625 26.64453125 C21.35979504 42.06698885 19.66792783 53.40629631 9.12890625 65.33203125 C-2.25491761 75.36063799 -12.38521095 78.52761632 -27.52050781 77.82373047 C-38.83692047 76.79725409 -47.5259371 69.49957016 -54.66796875 61.21875 C-61.87299842 51.07320609 -63.54630547 39.75776873 -62.49609375 27.64453125 C-59.3400695 15.90466518 -51.86532675 5.69438801 -41.41796875 -0.609375 C-27.88952489 -7.6059557 -13.40690745 -7.28043331 0 0 Z " fill="#FDFEFD" transform="translate(279.49609375,403.35546875)"/>
<path d="M0 0 C10.38536136 6.53244483 17.30329973 14.99929136 20.37890625 27.08203125 C20.42015625 28.25765625 20.46140625 29.43328125 20.50390625 30.64453125 C20.55289063 31.62164062 20.601875 32.59875 20.65234375 33.60546875 C21.04523418 46.57085293 17.70789014 55.62423369 9.12890625 65.33203125 C-2.25491761 75.36063799 -12.38521095 78.52761632 -27.52050781 77.82373047 C-38.83692047 76.79725409 -47.5259371 69.49957016 -54.66796875 61.21875 C-61.87299842 51.07320609 -63.54630547 39.75776873 -62.49609375 27.64453125 C-59.3400695 15.90466518 -51.86532675 5.69438801 -41.41796875 -0.609375 C-27.88952489 -7.6059557 -13.40690745 -7.28043331 0 0 Z " fill="#FDFEFD" transform="translate(379.49609375,403.35546875)"/>
<path d="M0 0 C42.57 0 85.14 0 129 0 C129 44.88 129 89.76 129 136 C86.43 136 43.86 136 0 136 C0 91.12 0 46.24 0 0 Z M11 11 C11 48.62 11 86.24 11 125 C46.31 125 81.62 125 118 125 C118 87.38 118 49.76 118 11 C82.69 11 47.38 11 11 11 Z " fill="#8691E9" transform="translate(285,220)"/>
<path d="M0 0 C27.72 0 55.44 0 84 0 C84 29.37 84 58.74 84 89 C56.28 89 28.56 89 0 89 C0 59.63 0 30.26 0 0 Z M12 12 C12 33.45 12 54.9 12 77 C31.8 77 51.6 77 72 77 C72 55.55 72 34.1 72 12 C52.2 12 32.4 12 12 12 Z " fill="#F11C1B" transform="translate(201,268)"/>
</svg>
